<?xml version="1.0" encoding="UTF-8" standalone="no"?>
<!DOCTYPE svg PUBLIC "-//W3C//DTD SVG 1.1//EN" "http://www.w3.org/Graphics/SVG/1.1/DTD/svg11.dtd">
<svg width="100%" height="100%" viewBox="0 0 550 260" version="1.1" xmlns="http://www.w3.org/2000/svg" xmlns:xlink="http://www.w3.org/1999/xlink" xml:space="preserve" style="fill-rule:evenodd;clip-rule:evenodd;stroke-linecap:round;stroke-linejoin:round;stroke-miterlimit:1.41421;">
    <g transform="matrix(1,0,0,1,-133.683,-99.2411)">
        <path d="M159.548,114.817C162.255,114.817 164.385,115.488 165.938,116.83C167.49,118.172 168.267,120.009 168.267,122.341C168.267,125.001 167.42,127.087 165.727,128.599C164.033,130.11 161.698,130.866 158.722,130.866C155.827,130.866 153.618,130.403 152.095,129.477L152.095,126.665C152.915,127.192 153.935,127.605 155.153,127.904C156.372,128.203 157.573,128.352 158.757,128.352C160.819,128.352 162.422,127.866 163.565,126.893C164.707,125.921 165.278,124.515 165.278,122.675C165.278,119.089 163.081,117.296 158.687,117.296C157.573,117.296 156.085,117.466 154.222,117.806L152.71,116.839L153.677,104.815L166.456,104.815L166.456,107.505L156.173,107.505L155.523,115.222C156.87,114.952 158.212,114.817 159.548,114.817Z" style="fill:white;fill-rule:nonzero;"/>
        <path d="M176.862,130.515L173.874,130.515L173.874,104.815L188.2,104.815L188.2,107.47L176.862,107.47L176.862,116.874L187.515,116.874L187.515,119.528L176.862,119.528L176.862,130.515Z" style="fill:white;fill-rule:nonzero;"/>
    </g>
    <g transform="matrix(1,0,0,1,-195.58,-136.129)">
        <path d="M470.824,145.489L505.626,145.489L505.626,196.087L491.649,196.087L491.649,206.657L470.824,206.657L470.824,145.489Z" style="fill:rgb(128,0,0);stroke-width:1px;stroke:white;"/>
    </g>
    <g transform="matrix(1,0,0,1,-195.58,-136.129)">
        <path d="M541.524,206.657L519.011,206.657L519.011,196.087L505.626,196.087L505.626,145.489L541.524,145.489L541.524,206.657Z" style="fill:rgb(0,0,128);stroke-width:1px;stroke:white;"/>
    </g>
    <g transform="matrix(1,0,0,1,-195.58,-136.129)">
        <path d="M381.673,268.983L349.408,268.983L349.408,247.863L375.225,247.863" style="fill:none;stroke-width:1px;stroke:white;"/>
    </g>
    <g transform="matrix(2.83277e-16,1,-1,2.83277e-16,430.641,-282.102)">
        <path d="M393.894,245.132L397.521,252.384L390.268,252.384L393.894,245.132Z" style="fill:white;stroke-width:1px;stroke:white;"/>
    </g>
    <g transform="matrix(-1.06402,0,0,1,705.865,-136.129)">
        <path d="M381.673,268.983L349.408,268.983L349.408,247.863L375.225,247.863" style="fill:none;stroke-width:0.97px;stroke:white;"/>
    </g>
    <g transform="matrix(-3.01413e-16,1,1.06402,2.83277e-16,39.5504,-282.102)">
        <path d="M393.894,245.132L397.521,252.384L390.268,252.384L393.894,245.132Z" style="fill:white;stroke-width:0.97px;stroke:white;"/>
    </g>
    <g transform="matrix(1,0,0,0.979291,-194.58,-130.335)">
        <path d="M484.567,279.783L541.134,279.783L541.134,237.717L485.074,237.717L485.074,259.077L519.804,259.077" style="fill:none;stroke-width:1.01px;stroke:white;"/>
    </g>
    <g transform="matrix(1,0,0,1,-196.58,-135.129)">
        <path d="M203.169,264.655L203.169,279.018" style="fill:none;stroke-width:1px;stroke:white;"/>
    </g>
    <g transform="matrix(1,0,0,1,-195.58,-136.129)">
        <rect x="202.124" y="280.397" width="63.839" height="111.368" style="fill:rgb(128,128,0);"/>
    </g>
    <g transform="matrix(1,0,0,0.825567,-195.58,-194.702)">
        <rect x="202.124" y="280.397" width="63.839" height="111.368" style="fill:rgb(235,235,235);fill-opacity:0.14902;stroke-width:1.09px;stroke:white;"/>
    </g>
    <g transform="matrix(-0.690221,0,0,0.368105,253.956,-15.4837)">
        <rect x="202.124" y="280.397" width="63.839" height="111.368" style="fill:rgb(235,235,235);fill-opacity:0.14902;stroke-width:1.81px;stroke:white;"/>
    </g>
    <g transform="matrix(-0.690221,-0,0,-0.70372,253.956,285.053)">
        <rect x="202.124" y="280.397" width="63.839" height="111.368" style="fill:rgb(235,235,235);fill-opacity:0.14902;stroke-width:1.43px;stroke:white;"/>
    </g>
    <g transform="matrix(1.54513,0,-0,-0.549243,-197.863,224.534)">
        <rect x="202.124" y="280.397" width="63.839" height="111.368" style="fill:rgb(235,235,235);fill-opacity:0.14902;stroke-width:0.86px;stroke:white;"/>
    </g>
    <g transform="matrix(-1.11605,0,-0,-0.549243,642.77,224.534)">
        <rect x="202.124" y="280.397" width="63.839" height="111.368" style="fill:rgb(235,235,235);fill-opacity:0.14902;stroke-width:1.14px;stroke:white;"/>
    </g>
    <g transform="matrix(-0.967903,0,0,-0.895215,674.404,394.973)">
        <rect x="202.124" y="280.397" width="63.839" height="111.368" style="fill:rgb(235,235,235);fill-opacity:0.14902;stroke-width:1.07px;stroke:white;"/>
    </g>
    <g transform="matrix(1.02613,0,-0,-0.895215,271.587,394.973)">
        <rect x="202.124" y="280.397" width="63.839" height="111.368" style="fill:rgb(235,235,235);fill-opacity:0.14902;stroke-width:1.04px;stroke:white;"/>
    </g>
    <g transform="matrix(1,0,0,0.987936,-195.58,-132.755)">
        <rect x="407.274" y="238.318" width="31.644" height="41.354" style="fill:rgb(15,129,23);"/>
    </g>
    <g transform="matrix(-1.01,0,0,0.987936,686.647,-132.755)">
        <rect x="407.274" y="238.318" width="31.644" height="41.354" style="fill:rgb(15,129,23);"/>
    </g>
    <g transform="matrix(-1.11735,0,0,1,367.556,-136.129)">
        <rect x="202.124" y="280.397" width="63.839" height="111.368" style="fill:rgb(0,128,128);"/>
    </g>
    <g transform="matrix(1.09746,0,0,1,-80.1103,-136.129)">
        <rect x="202.124" y="280.397" width="63.839" height="111.368" style="fill:rgb(128,0,128);"/>
    </g>
    <g transform="matrix(-1.11207,0,0,0.744815,507.544,-36.1563)">
        <rect x="202.124" y="280.397" width="63.839" height="111.368" style="fill:rgb(235,235,235);fill-opacity:0.14902;stroke-width:1.06px;stroke:white;"/>
    </g>
    <g transform="matrix(2.09569,0,0,0.744815,-140.821,-36.1563)">
        <rect x="202.124" y="280.397" width="63.839" height="111.368" style="fill:rgb(235,235,235);fill-opacity:0.14902;stroke-width:0.64px;stroke:white;"/>
    </g>
    <g transform="matrix(-0.99302,0,0,0.744815,680.66,-36.1563)">
        <rect x="202.124" y="280.397" width="63.839" height="111.368" style="fill:rgb(235,235,235);fill-opacity:0.14902;stroke-width:1.14px;stroke:white;"/>
    </g>
    <g transform="matrix(1.00695,0,0,0.744815,276.418,-36.1563)">
        <rect x="202.124" y="280.397" width="63.839" height="111.368" style="fill:rgb(235,235,235);fill-opacity:0.14902;stroke-width:1.13px;stroke:white;"/>
    </g>
    <g transform="matrix(1,0,0,1,-195.58,-136.129)">
        <path d="M409.725,145.744L471.016,145.744" style="fill:none;stroke-width:1px;stroke:white;"/>
    </g>
    <g transform="matrix(1,0,0,1,-195.58,-136.129)">
        <path d="M740.143,280.424L740.143,307.748" style="fill:none;stroke-width:1px;stroke:white;"/>
    </g>
    <g transform="matrix(1,0,0,1,-195.58,-136.129)">
        <path d="M385.716,238.475L339.26,238.475L339.26,279.73" style="fill:none;stroke-width:1px;stroke:white;"/>
    </g>
    <g transform="matrix(1,0,0,1,-195.58,-136.129)">
        <path d="M355.489,258.807L385.204,258.807L385.204,238.808" style="fill:none;stroke-width:1px;stroke:white;"/>
    </g>
    <g transform="matrix(1,0,0,1,-195.58,-136.129)">
        <path d="M356.626,258.634L356.626,238.641" style="fill:none;stroke-width:1px;stroke:white;"/>
    </g>
    <g transform="matrix(1,0,0,1,-193.58,-136.129)">
        <path d="M356.626,258.634L356.626,238.641" style="fill:none;stroke-width:1px;stroke:white;"/>
    </g>
    <g transform="matrix(1,0,0,1,-191.58,-136.129)">
        <path d="M356.626,258.634L356.626,238.641" style="fill:none;stroke-width:1px;stroke:white;"/>
    </g>
    <g transform="matrix(1,0,0,1,-189.58,-136.129)">
        <path d="M356.626,258.634L356.626,238.641" style="fill:none;stroke-width:1px;stroke:white;"/>
    </g>
    <g transform="matrix(1,0,0,1,-187.58,-136.129)">
        <path d="M356.626,258.634L356.626,238.641" style="fill:none;stroke-width:1px;stroke:white;"/>
    </g>
    <g transform="matrix(1,0,0,1,-185.58,-136.129)">
        <path d="M356.626,258.634L356.626,238.641" style="fill:none;stroke-width:1px;stroke:white;"/>
    </g>
    <g transform="matrix(1,0,0,1,-183.58,-136.129)">
        <path d="M356.626,258.634L356.626,238.641" style="fill:none;stroke-width:1px;stroke:white;"/>
    </g>
    <g transform="matrix(1,0,0,1,-181.58,-136.129)">
        <path d="M356.626,258.634L356.626,238.641" style="fill:none;stroke-width:1px;stroke:white;"/>
    </g>
    <g transform="matrix(1,0,0,1,-192.538,-115.462)">
        <path d="M356.626,258.634L356.626,238.641" style="fill:none;stroke-width:1px;stroke:white;"/>
    </g>
    <g transform="matrix(1,0,0,1,-190.538,-115.462)">
        <path d="M356.626,258.634L356.626,238.641" style="fill:none;stroke-width:1px;stroke:white;"/>
    </g>
    <g transform="matrix(1,0,0,1,-188.538,-115.462)">
        <path d="M356.626,258.634L356.626,238.641" style="fill:none;stroke-width:1px;stroke:white;"/>
    </g>
    <g transform="matrix(1,0,0,1,-186.538,-115.462)">
        <path d="M356.626,258.634L356.626,238.641" style="fill:none;stroke-width:1px;stroke:white;"/>
    </g>
    <g transform="matrix(1,0,0,1,-184.538,-115.462)">
        <path d="M356.626,258.634L356.626,238.641" style="fill:none;stroke-width:1px;stroke:white;"/>
    </g>
    <g transform="matrix(1,0,0,1,-182.538,-115.462)">
        <path d="M356.626,258.634L356.626,238.641" style="fill:none;stroke-width:1px;stroke:white;"/>
    </g>
    <g transform="matrix(1,0,0,1,-180.538,-115.462)">
        <path d="M356.626,258.634L356.626,238.641" style="fill:none;stroke-width:1px;stroke:white;"/>
    </g>
    <g transform="matrix(1,0,0,1,-178.538,-115.462)">
        <path d="M356.626,258.634L356.626,238.641" style="fill:none;stroke-width:1px;stroke:white;"/>
    </g>
    <g transform="matrix(1,0,0,1,-51.383,-115.738)">
        <path d="M356.626,258.634L356.626,238.641" style="fill:none;stroke-width:1px;stroke:white;"/>
    </g>
    <g transform="matrix(1,0,0,1,-49.383,-115.738)">
        <path d="M356.626,258.634L356.626,238.641" style="fill:none;stroke-width:1px;stroke:white;"/>
    </g>
    <g transform="matrix(1,0,0,1,-47.383,-115.738)">
        <path d="M356.626,258.634L356.626,238.641" style="fill:none;stroke-width:1px;stroke:white;"/>
    </g>
    <g transform="matrix(1,0,0,1,-45.383,-115.738)">
        <path d="M356.626,258.634L356.626,238.641" style="fill:none;stroke-width:1px;stroke:white;"/>
    </g>
    <g transform="matrix(1,0,0,1,-43.383,-115.738)">
        <path d="M356.626,258.634L356.626,238.641" style="fill:none;stroke-width:1px;stroke:white;"/>
    </g>
    <g transform="matrix(1,0,0,1,-41.383,-115.738)">
        <path d="M356.626,258.634L356.626,238.641" style="fill:none;stroke-width:1px;stroke:white;"/>
    </g>
    <g transform="matrix(1,0,0,1,-39.383,-115.738)">
        <path d="M356.626,258.634L356.626,238.641" style="fill:none;stroke-width:1px;stroke:white;"/>
    </g>
    <g transform="matrix(1,0,0,1,-37.383,-115.738)">
        <path d="M356.626,258.634L356.626,238.641" style="fill:none;stroke-width:1px;stroke:white;"/>
    </g>
    <g transform="matrix(1,0,0,1,-45.4124,-136.129)">
        <path d="M356.626,258.634L356.626,238.641" style="fill:none;stroke-width:1px;stroke:white;"/>
    </g>
    <g transform="matrix(1,0,0,1,-43.4124,-136.129)">
        <path d="M356.626,258.634L356.626,238.641" style="fill:none;stroke-width:1px;stroke:white;"/>
    </g>
    <g transform="matrix(1,0,0,1,-41.4124,-136.129)">
        <path d="M356.626,258.634L356.626,238.641" style="fill:none;stroke-width:1px;stroke:white;"/>
    </g>
    <g transform="matrix(1,0,0,1,-39.4124,-136.129)">
        <path d="M356.626,258.634L356.626,238.641" style="fill:none;stroke-width:1px;stroke:white;"/>
    </g>
    <g transform="matrix(1,0,0,1,-37.4124,-136.129)">
        <path d="M356.626,258.634L356.626,238.641" style="fill:none;stroke-width:1px;stroke:white;"/>
    </g>
    <g transform="matrix(1,0,0,1,-35.4124,-136.129)">
        <path d="M356.626,258.634L356.626,238.641" style="fill:none;stroke-width:1px;stroke:white;"/>
    </g>
    <g transform="matrix(1,0,0,1,-33.4124,-136.129)">
        <path d="M356.626,258.634L356.626,238.641" style="fill:none;stroke-width:1px;stroke:white;"/>
    </g>
    <g transform="matrix(1,0,0,1,-31.4124,-136.129)">
        <path d="M356.626,258.634L356.626,238.641" style="fill:none;stroke-width:1px;stroke:white;"/>
    </g>
    <g transform="matrix(1,0,0,1,-195.58,-136.129)">
        <path d="M415.206,277.422L413.411,277.422L413.411,270.752C412.558,270.608 411.907,269.865 411.907,268.972L411.907,261.45C411.907,260.454 412.716,259.645 413.712,259.645L417.321,259.645C418.317,259.645 419.125,260.454 419.125,261.45L419.125,268.972C419.125,269.865 418.475,270.608 417.622,270.752L417.622,277.422L415.827,277.422L415.827,270.777L415.206,270.777L415.206,277.422ZM423.107,277.422L421.312,277.422L421.312,270.752C420.459,270.608 419.809,269.865 419.809,268.972L419.809,261.45C419.809,260.454 420.617,259.645 421.613,259.645L425.222,259.645C426.218,259.645 427.027,260.454 427.027,261.45L427.027,268.972C427.027,269.865 426.376,270.608 425.523,270.752L425.523,277.422L423.728,277.422L423.728,270.777L423.107,270.777L423.107,277.422ZM431.008,277.422L429.214,277.422L429.214,270.752C428.361,270.608 427.71,269.865 427.71,268.972L427.71,261.45C427.71,260.454 428.519,259.645 429.515,259.645L433.124,259.645C434.12,259.645 434.928,260.454 434.928,261.45L434.928,268.972C434.928,269.865 434.278,270.608 433.425,270.752L433.425,277.422L431.63,277.422L431.63,270.777L431.008,270.777L431.008,277.422ZM415.516,252.826C417.315,252.826 418.776,254.286 418.776,256.085C418.776,257.884 417.315,259.345 415.516,259.345C413.717,259.345 412.257,257.884 412.257,256.085C412.257,254.286 413.717,252.826 415.516,252.826ZM423.418,252.826C425.217,252.826 426.677,254.286 426.677,256.085C426.677,257.884 425.217,259.345 423.418,259.345C421.619,259.345 420.158,257.884 420.158,256.085C420.158,254.286 421.619,252.826 423.418,252.826ZM431.319,252.826C433.118,252.826 434.579,254.286 434.579,256.085C434.579,257.884 433.118,259.345 431.319,259.345C429.52,259.345 428.06,257.884 428.06,256.085C428.06,254.286 429.52,252.826 431.319,252.826ZM420.324,251.142L418.539,251.142L418.539,245.211L416.753,245.211L419.432,239.854L422.11,245.211L420.324,245.211L420.324,251.142ZM427.743,245.786L429.528,245.786L426.85,251.142L424.172,245.786L425.957,245.786L425.957,239.854L427.743,239.854L427.743,245.786Z" style="fill:rgb(0,255,0);"/>
    </g>
    <g transform="matrix(1,0,0,1,-195.58,-136.129)">
        <path d="M446.381,277.422L444.586,277.422L444.586,270.752C443.733,270.608 443.083,269.865 443.083,268.972L443.083,261.45C443.083,260.454 443.891,259.645 444.887,259.645L448.496,259.645C449.492,259.645 450.301,260.454 450.301,261.45L450.301,268.972C450.301,269.865 449.65,270.608 448.797,270.752L448.797,277.422L447.003,277.422L447.003,270.777L446.381,270.777L446.381,277.422ZM454.283,277.422L452.488,277.422L452.488,270.752C451.635,270.608 450.984,269.865 450.984,268.972L450.984,261.45C450.984,260.454 451.793,259.645 452.789,259.645L456.398,259.645C457.394,259.645 458.202,260.454 458.202,261.45L458.202,268.972C458.202,269.865 457.552,270.608 456.699,270.752L456.699,277.422L454.904,277.422L454.904,270.777L454.283,270.777L454.283,277.422ZM462.184,277.422L460.389,277.422L460.389,270.752C459.536,270.608 458.886,269.865 458.886,268.972L458.886,261.45C458.886,260.454 459.694,259.645 460.69,259.645L464.299,259.645C465.295,259.645 466.104,260.454 466.104,261.45L466.104,268.972C466.104,269.865 465.453,270.608 464.6,270.752L464.6,277.422L462.805,277.422L462.805,270.777L462.184,270.777L462.184,277.422ZM446.692,252.826C448.491,252.826 449.951,254.286 449.951,256.085C449.951,257.884 448.491,259.345 446.692,259.345C444.893,259.345 443.432,257.884 443.432,256.085C443.432,254.286 444.893,252.826 446.692,252.826ZM454.593,252.826C456.392,252.826 457.853,254.286 457.853,256.085C457.853,257.884 456.392,259.345 454.593,259.345C452.794,259.345 451.334,257.884 451.334,256.085C451.334,254.286 452.794,252.826 454.593,252.826ZM462.495,252.826C464.294,252.826 465.754,254.286 465.754,256.085C465.754,257.884 464.294,259.345 462.495,259.345C460.696,259.345 459.235,257.884 459.235,256.085C459.235,254.286 460.696,252.826 462.495,252.826ZM451.5,251.142L449.714,251.142L449.714,245.211L447.929,245.211L450.607,239.854L453.285,245.211L451.5,245.211L451.5,251.142ZM458.918,245.786L460.704,245.786L458.026,251.142L455.347,245.786L457.133,245.786L457.133,239.854L458.918,239.854L458.918,245.786Z" style="fill:rgb(0,255,0);"/>
    </g>
    <g transform="matrix(1,0,0,1,-195.58,-144.355)">
        <path d="M491.815,192.213L482.831,192.213L487.323,180.515L491.815,192.213ZM487.323,171.516C489.4,171.516 491.086,173.203 491.086,175.28C491.086,177.356 489.4,179.043 487.323,179.043C485.246,179.043 483.56,177.356 483.56,175.28C483.56,173.203 485.246,171.516 487.323,171.516Z" style="fill:rgb(255,0,0);"/>
    </g>
    <g transform="matrix(1,0,0,1,-195.58,-144.355)">
        <path d="M522.293,191.967L517.8,180.27L526.785,180.27L522.293,191.967ZM522.293,171.026C524.37,171.026 526.056,172.712 526.056,174.789C526.056,176.866 524.37,178.552 522.293,178.552C520.216,178.552 518.53,176.866 518.53,174.789C518.53,172.712 520.216,171.026 522.293,171.026Z" style="fill:rgb(0,0,255);"/>
    </g>
    <g transform="matrix(1,0,0,1,-194.217,-134.027)">
        <path d="M252.655,364.947L246.679,364.947L246.679,340.759L219.608,340.759L219.608,364.947L213.632,364.947L213.632,313.548L219.608,313.548L219.608,335.416L246.679,335.416L246.679,313.548L252.655,313.548L252.655,364.947Z" style="fill:rgb(255,255,0);fill-rule:nonzero;"/>
    </g>
    <g transform="matrix(1,0,0,1,-125.109,-134.027)">
        <path d="M250.757,364.947L243.725,364.947L224.987,340.021L219.608,344.802L219.608,364.947L213.632,364.947L213.632,313.548L219.608,313.548L219.608,339.037L242.917,313.548L249.983,313.548L229.311,335.873L250.757,364.947Z" style="fill:rgb(0,255,255);fill-rule:nonzero;"/>
    </g>
    <g transform="matrix(1,0,0,1,-50.9711,-134.027)">
        <path d="M229.452,364.947L223.475,364.947L223.475,318.857L207.198,318.857L207.198,313.548L245.729,313.548L245.729,318.857L229.452,318.857L229.452,364.947Z" style="fill:rgb(255,0,255);fill-rule:nonzero;"/>
    </g>
    <g transform="matrix(1,0,0,1,-195.58,-136.129)">
        <path d="M260.111,279.897L265.963,279.897C266.006,279.903 266.049,279.909 266.092,279.915C266.132,279.931 266.175,279.943 266.213,279.964C266.327,280.03 266.412,280.141 266.446,280.268C266.457,280.31 266.457,280.354 266.463,280.397L266.463,391.766C266.457,391.809 266.457,391.853 266.446,391.895C266.4,392.066 266.263,392.203 266.092,392.249C266.05,392.26 266.006,392.26 265.963,392.266L202.124,392.266C202.081,392.26 202.037,392.26 201.994,392.249C201.824,392.203 201.687,392.066 201.641,391.895C201.63,391.853 201.63,391.809 201.624,391.766L201.624,280.397C201.63,280.354 201.63,280.31 201.641,280.268C201.687,280.097 201.824,279.96 201.994,279.915C202.037,279.903 202.081,279.903 202.124,279.897L240.396,279.897L240.396,280.897L202.624,280.897L202.624,391.266L265.463,391.266L265.463,280.897L260.111,280.897L260.111,279.897Z" style="fill:white;"/>
    </g>
    <g transform="matrix(1,0,0,1,-195.58,-136.129)">
        <path d="M333.354,279.897L337.293,279.897C337.336,279.903 337.38,279.909 337.423,279.915C337.463,279.931 337.506,279.943 337.543,279.964C337.657,280.03 337.742,280.141 337.776,280.268C337.788,280.31 337.788,280.354 337.793,280.397L337.793,391.766C337.788,391.809 337.788,391.853 337.776,391.895C337.73,392.066 337.594,392.203 337.423,392.249C337.381,392.26 337.337,392.26 337.293,392.266L265.963,392.266C265.92,392.26 265.875,392.26 265.833,392.249C265.662,392.203 265.526,392.066 265.48,391.895C265.469,391.853 265.469,391.809 265.463,391.766L265.463,280.397C265.469,280.354 265.469,280.31 265.48,280.268C265.526,280.097 265.662,279.96 265.833,279.915C265.875,279.903 265.92,279.903 265.963,279.897L313.639,279.897L313.639,280.897L266.463,280.897L266.463,391.266L336.793,391.266L336.793,280.897L333.354,280.897L333.354,279.897Z" style="fill:white;"/>
    </g>
    <g transform="matrix(1,0,0,1,-195.58,-136.129)">
        <path d="M384.857,280.897L337.793,280.897L337.793,391.266L406.854,391.266L406.854,306.328L407.854,306.328L407.854,391.766C407.848,391.809 407.848,391.853 407.837,391.895C407.791,392.066 407.655,392.203 407.484,392.249C407.442,392.26 407.397,392.26 407.354,392.266L337.293,392.266C337.25,392.26 337.206,392.26 337.164,392.249C336.993,392.203 336.856,392.066 336.81,391.895C336.799,391.853 336.799,391.809 336.793,391.766L336.793,280.397C336.799,280.354 336.799,280.31 336.81,280.268C336.856,280.097 336.993,279.96 337.164,279.915C337.206,279.903 337.25,279.903 337.293,279.897L384.857,279.897L384.857,280.897ZM406.854,284.409L406.854,280.897L404.571,280.897L404.571,279.897L407.354,279.897C407.397,279.903 407.44,279.909 407.484,279.915C407.524,279.931 407.566,279.943 407.604,279.964C407.718,280.03 407.803,280.141 407.837,280.268C407.848,280.31 407.848,280.354 407.854,280.397L407.854,284.409L406.854,284.409Z" style="fill:white;"/>
    </g>
    <g transform="matrix(1,0,0,1,-195.58,-136.129)">
        <path d="M260.29,280.065C260.291,280.148 260.292,280.23 260.292,280.312C260.292,291.057 251.676,299.805 240.983,300.02L240.983,280.065L260.29,280.065Z" style="fill:rgb(202,203,206);fill-opacity:0.235294;stroke-width:0.4px;stroke:white;"/>
    </g>
    <g transform="matrix(1,0,0,1,-122.631,-136.129)">
        <path d="M260.29,280.065C260.291,280.148 260.292,280.23 260.292,280.312C260.292,291.057 251.676,299.805 240.983,300.02L240.983,280.065L260.29,280.065Z" style="fill:rgb(202,203,206);fill-opacity:0.235294;stroke-width:0.4px;stroke:white;"/>
    </g>
    <g transform="matrix(1,0,0,1,-52.0744,-136.129)">
        <path d="M260.29,280.065C260.291,280.148 260.292,280.23 260.292,280.312C260.292,291.057 251.676,299.805 240.983,300.02L240.983,280.065L260.29,280.065Z" style="fill:rgb(202,203,206);fill-opacity:0.235294;stroke-width:0.4px;stroke:white;"/>
    </g>
    <g transform="matrix(-3.11178e-16,-1.0985,-1,2.83277e-16,491.139,435.664)">
        <path d="M260.29,280.065C260.291,280.148 260.292,280.23 260.292,280.312C260.292,291.057 251.676,299.805 240.983,300.02L240.983,280.065L260.29,280.065Z" style="fill:rgb(202,203,206);fill-opacity:0.235294;stroke-width:0.38px;stroke:white;"/>
    </g>
    <g transform="matrix(1,0,0,1,-195.58,-136.129)">
        <path d="M433.841,237.818L438.918,237.818C438.947,237.82 438.976,237.823 439.005,237.825C439.079,237.845 439.101,237.846 439.168,237.884C439.269,237.943 439.348,238.037 439.388,238.146C439.415,238.22 439.411,238.241 439.418,238.318L439.418,279.671C439.411,279.748 439.415,279.769 439.388,279.842C439.338,279.98 439.227,280.091 439.089,280.141C439.016,280.168 438.995,280.164 438.918,280.171L407.274,280.171C407.198,280.164 407.177,280.168 407.103,280.141C406.966,280.091 406.855,279.98 406.805,279.842C406.778,279.769 406.781,279.748 406.774,279.671L406.774,238.318C406.781,238.241 406.778,238.22 406.805,238.146C406.855,238.009 406.966,237.898 407.103,237.848C407.177,237.821 407.198,237.824 407.274,237.818L412.599,237.818L412.599,238.818L407.774,238.818L407.774,279.171L438.418,279.171L438.418,238.818L433.841,238.818L433.841,237.818Z" style="fill:white;"/>
    </g>
    <g transform="matrix(1,0,0,1,-195.58,-136.129)">
        <path d="M465.235,237.818L470.879,237.818C470.907,237.82 470.936,237.823 470.965,237.825C471.04,237.845 471.061,237.846 471.129,237.884C471.23,237.943 471.308,238.037 471.348,238.146C471.375,238.22 471.372,238.241 471.379,238.318L471.379,279.671C471.372,279.748 471.375,279.769 471.348,279.842C471.298,279.98 471.187,280.091 471.05,280.141C470.976,280.168 470.955,280.164 470.879,280.171L438.918,280.171C438.841,280.164 438.82,280.168 438.747,280.141C438.609,280.091 438.498,279.98 438.448,279.842C438.422,279.769 438.425,279.748 438.418,279.671L438.418,238.318C438.425,238.241 438.422,238.22 438.448,238.146C438.498,238.009 438.609,237.898 438.747,237.848C438.82,237.821 438.841,237.824 438.918,237.818L443.994,237.818L443.994,238.818L439.418,238.818L439.418,279.171L470.379,279.171L470.379,238.818L465.235,238.818L465.235,237.818Z" style="fill:white;"/>
    </g>
</svg>
